<svg xmlns="http://www.w3.org/2000/svg" xmlns:xlink="http://www.w3.org/1999/xlink" id="processonSvg1000" viewBox="111.5 177.5 827.5 543.0" width="827.5" height="543.0"><defs id="ProcessOnDefs1001"><marker id="ProcessOnMarker1032" markerUnits="userSpaceOnUse" orient="auto" markerWidth="16.23606797749979" markerHeight="10.550836550532098" viewBox="-1.0 -1.3763819204711736 16.23606797749979 10.550836550532098" refX="-1.0" refY="3.8990363547948754"><path id="ProcessOnPath1033" d="M12.0 3.8990363547948754L0.0 7.798072709589751V0.0Z" stroke="#323232" stroke-width="2.0" fill="#323232" transform="matrix(1.0,0.0,0.0,1.0,0.0,0.0)"/></marker><marker id="ProcessOnMarker1036" markerUnits="userSpaceOnUse" orient="auto" markerWidth="16.23606797749979" markerHeight="10.550836550532098" viewBox="-1.0 -1.3763819204711736 16.23606797749979 10.550836550532098" refX="-1.0" refY="3.8990363547948754"><path id="ProcessOnPath1037" d="M12.0 3.8990363547948754L0.0 7.798072709589751V0.0Z" stroke="#323232" stroke-width="2.0" fill="#323232" transform="matrix(1.0,0.0,0.0,1.0,0.0,0.0)"/></marker><marker id="ProcessOnMarker1049" markerUnits="userSpaceOnUse" orient="auto" markerWidth="16.23606797749979" markerHeight="10.550836550532098" viewBox="-1.0 -1.3763819204711736 16.23606797749979 10.550836550532098" refX="-1.0" refY="3.8990363547948754"><path id="ProcessOnPath1050" d="M12.0 3.8990363547948754L0.0 7.798072709589751V0.0Z" stroke="#323232" stroke-width="2.0" fill="#323232" transform="matrix(1.0,0.0,0.0,1.0,0.0,0.0)"/></marker><marker id="ProcessOnMarker1053" markerUnits="userSpaceOnUse" orient="auto" markerWidth="16.23606797749979" markerHeight="10.550836550532098" viewBox="-1.0 -1.3763819204711736 16.23606797749979 10.550836550532098" refX="-1.0" refY="3.8990363547948754"><path id="ProcessOnPath1054" d="M12.0 3.8990363547948754L0.0 7.798072709589751V0.0Z" stroke="#323232" stroke-width="2.0" fill="#323232" transform="matrix(1.0,0.0,0.0,1.0,0.0,0.0)"/></marker><marker id="ProcessOnMarker1057" markerUnits="userSpaceOnUse" orient="auto" markerWidth="16.23606797749979" markerHeight="10.550836550532098" viewBox="-1.0 -1.3763819204711736 16.23606797749979 10.550836550532098" refX="-1.0" refY="3.8990363547948754"><path id="ProcessOnPath1058" d="M12.0 3.8990363547948754L0.0 7.798072709589751V0.0Z" stroke="#323232" stroke-width="2.0" fill="#323232" transform="matrix(1.0,0.0,0.0,1.0,0.0,0.0)"/></marker><marker id="ProcessOnMarker1061" markerUnits="userSpaceOnUse" orient="auto" markerWidth="16.23606797749979" markerHeight="10.550836550532098" viewBox="-1.0 -1.3763819204711736 16.23606797749979 10.550836550532098" refX="-1.0" refY="3.8990363547948754"><path id="ProcessOnPath1062" d="M12.0 3.8990363547948754L0.0 7.798072709589751V0.0Z" stroke="#323232" stroke-width="2.0" fill="#323232" transform="matrix(1.0,0.0,0.0,1.0,0.0,0.0)"/></marker><marker id="ProcessOnMarker1065" markerUnits="userSpaceOnUse" orient="auto" markerWidth="16.23606797749979" markerHeight="10.550836550532098" viewBox="-1.0 -1.3763819204711736 16.23606797749979 10.550836550532098" refX="-1.0" refY="3.8990363547948754"><path id="ProcessOnPath1066" d="M12.0 3.8990363547948754L0.0 7.798072709589751V0.0Z" stroke="#323232" stroke-width="2.0" fill="#323232" transform="matrix(1.0,0.0,0.0,1.0,0.0,0.0)"/></marker><marker id="ProcessOnMarker1069" markerUnits="userSpaceOnUse" orient="auto" markerWidth="16.23606797749979" markerHeight="10.550836550532098" viewBox="-1.0 -1.3763819204711736 16.23606797749979 10.550836550532098" refX="-1.0" refY="3.8990363547948754"><path id="ProcessOnPath1070" d="M12.0 3.8990363547948754L0.0 7.798072709589751V0.0Z" stroke="#323232" stroke-width="2.0" fill="#323232" transform="matrix(1.0,0.0,0.0,1.0,0.0,0.0)"/></marker><marker id="ProcessOnMarker1073" markerUnits="userSpaceOnUse" orient="auto" markerWidth="16.23606797749979" markerHeight="10.550836550532098" viewBox="-1.0 -1.3763819204711736 16.23606797749979 10.550836550532098" refX="-1.0" refY="3.8990363547948754"><path id="ProcessOnPath1074" d="M12.0 3.8990363547948754L0.0 7.798072709589751V0.0Z" stroke="#323232" stroke-width="2.0" fill="#323232" transform="matrix(1.0,0.0,0.0,1.0,0.0,0.0)"/></marker><marker id="ProcessOnMarker1077" markerUnits="userSpaceOnUse" orient="auto" markerWidth="16.23606797749979" markerHeight="10.550836550532098" viewBox="-1.0 -1.3763819204711736 16.23606797749979 10.550836550532098" refX="-1.0" refY="3.8990363547948754"><path id="ProcessOnPath1078" d="M12.0 3.8990363547948754L0.0 7.798072709589751V0.0Z" stroke="#323232" stroke-width="2.0" fill="#323232" transform="matrix(1.0,0.0,0.0,1.0,0.0,0.0)"/></marker><marker id="ProcessOnMarker1091" markerUnits="userSpaceOnUse" orient="auto" markerWidth="16.23606797749979" markerHeight="10.550836550532098" viewBox="-1.0 -1.3763819204711736 16.23606797749979 10.550836550532098" refX="-1.0" refY="3.8990363547948754"><path id="ProcessOnPath1092" d="M12.0 3.8990363547948754L0.0 7.798072709589751V0.0Z" stroke="#323232" stroke-width="2.0" fill="#323232" transform="matrix(1.0,0.0,0.0,1.0,0.0,0.0)"/></marker><marker id="ProcessOnMarker1095" markerUnits="userSpaceOnUse" orient="auto" markerWidth="16.23606797749979" markerHeight="10.550836550532098" viewBox="-1.0 -1.3763819204711736 16.23606797749979 10.550836550532098" refX="-1.0" refY="3.8990363547948754"><path id="ProcessOnPath1096" d="M12.0 3.8990363547948754L0.0 7.798072709589751V0.0Z" stroke="#323232" stroke-width="2.0" fill="#323232" transform="matrix(1.0,0.0,0.0,1.0,0.0,0.0)"/></marker><marker id="ProcessOnMarker1136" markerUnits="userSpaceOnUse" orient="auto" markerWidth="16.23606797749979" markerHeight="10.550836550532098" viewBox="-1.0 -1.3763819204711736 16.23606797749979 10.550836550532098" refX="-1.0" refY="3.8990363547948754"><path id="ProcessOnPath1137" d="M12.0 3.8990363547948754L0.0 7.798072709589751V0.0Z" stroke="#323232" stroke-width="2.0" fill="#323232" transform="matrix(1.0,0.0,0.0,1.0,0.0,0.0)"/></marker><marker id="ProcessOnMarker1161" markerUnits="userSpaceOnUse" orient="auto" markerWidth="16.23606797749979" markerHeight="10.550836550532098" viewBox="-1.0 -1.3763819204711736 16.23606797749979 10.550836550532098" refX="-1.0" refY="3.8990363547948754"><path id="ProcessOnPath1162" d="M12.0 3.8990363547948754L0.0 7.798072709589751V0.0Z" stroke="#323232" stroke-width="2.0" fill="#323232" transform="matrix(1.0,0.0,0.0,1.0,0.0,0.0)"/></marker><marker id="ProcessOnMarker1169" markerUnits="userSpaceOnUse" orient="auto" markerWidth="16.23606797749979" markerHeight="10.550836550532098" viewBox="-1.0 -1.3763819204711736 16.23606797749979 10.550836550532098" refX="-1.0" refY="3.8990363547948754"><path id="ProcessOnPath1170" d="M12.0 3.8990363547948754L0.0 7.798072709589751V0.0Z" stroke="#323232" stroke-width="2.0" fill="#323232" transform="matrix(1.0,0.0,0.0,1.0,0.0,0.0)"/></marker></defs><g id="ProcessOnG1002"><path id="ProcessOnPath1003" d="M111.5 177.5H939.0V720.5H111.5V177.5Z" fill="none"/><g id="ProcessOnG1004"><g id="ProcessOnG1005" transform="matrix(1.0,0.0,0.0,1.0,454.5,197.5)" opacity="1.0"><g id="ProcessOnG1007" transform="matrix(1.0,0.0,0.0,1.0,0.0,0.0)">
<path fill="#00BCF2" d="M1.398,73.64c0.322-6.125,1.769-11.747,4.324-16.809c2.85-5.641,6.373-9.628,10.458-11.83
	c2.615-1.41,5.66-1.558,9.035-0.437c1.532,0.509,2.477,1.013,5.224,2.783c7.403,4.774,12.203,6.578,16.071,6.04
	c1.464-0.203,2.597-0.601,4.677-1.639c1.855-0.925,2.43-1.342,4.628-3.351c0.808-0.738,1.793-1.519,2.189-1.733
	c0.644-0.351,0.822-0.382,1.686-0.303c2.462,0.23,4.68,2.079,7.391,6.158c2.396,3.608,3.638,6.454,4.692,10.762
	c0.604,2.47,1.107,5.306,1.468,8.261c0.167,1.376,0.333,2.716,0.368,2.979L73.674,75H37.501H1.326L1.398,73.64L1.398,73.64z
	 M40.054,43.59c-6.679-1.046-12.624-5.691-15.813-12.358c-1.648-3.444-2.334-6.552-2.353-10.668
	c-0.038-8.003,4.14-15.267,10.704-18.617c2.81-1.434,5.637-2.059,8.732-1.931c3.017,0.125,4.764,0.573,7.576,1.941
	c2.041,0.993,3.119,1.707,4.743,3.141C59.062,9.88,62.13,17.534,61.507,24.7c-0.372,4.262-1.501,7.592-3.684,10.866
	C53.886,41.472,46.844,44.651,40.054,43.59L40.054,43.59z"/>

</g></g><g id="ProcessOnG1008" transform="matrix(1.0,0.0,0.0,1.0,537.5,197.5)" opacity="1.0"><g id="ProcessOnG1010" transform="matrix(1.0,0.0,0.0,1.0,0.0,0.0)">
<path fill="#00BCF2" d="M1.398,73.64c0.322-6.125,1.769-11.747,4.324-16.809c2.85-5.641,6.373-9.628,10.458-11.83
	c2.615-1.41,5.66-1.558,9.035-0.437c1.532,0.509,2.477,1.013,5.224,2.783c7.403,4.774,12.203,6.578,16.071,6.04
	c1.464-0.203,2.597-0.601,4.677-1.639c1.855-0.925,2.43-1.342,4.628-3.351c0.808-0.738,1.793-1.519,2.189-1.733
	c0.644-0.351,0.822-0.382,1.686-0.303c2.462,0.23,4.68,2.079,7.391,6.158c2.396,3.608,3.638,6.454,4.692,10.762
	c0.604,2.47,1.107,5.306,1.468,8.261c0.167,1.376,0.333,2.716,0.368,2.979L73.674,75H37.501H1.326L1.398,73.64L1.398,73.64z
	 M40.054,43.59c-6.679-1.046-12.624-5.691-15.813-12.358c-1.648-3.444-2.334-6.552-2.353-10.668
	c-0.038-8.003,4.14-15.267,10.704-18.617c2.81-1.434,5.637-2.059,8.732-1.931c3.017,0.125,4.764,0.573,7.576,1.941
	c2.041,0.993,3.119,1.707,4.743,3.141C59.062,9.88,62.13,17.534,61.507,24.7c-0.372,4.262-1.501,7.592-3.684,10.866
	C53.886,41.472,46.844,44.651,40.054,43.59L40.054,43.59z"/>

</g></g><g id="ProcessOnG1011" transform="matrix(1.0,0.0,0.0,1.0,626.0,448.5)" opacity="1.0"><path id="ProcessOnPath1012" d="M0.0 36.0C0.0 -12.0 164.0 -12.0 164.0 36.0C164.0 84.0 0.0 84.0 0.0 36.0Z" stroke="#ffffff" stroke-width="2.0" stroke-dasharray="none" opacity="1.0" fill="#dc4b4b"/><g id="ProcessOnG1013" transform="matrix(1.0,0.0,0.0,1.0,10.0,11.0)"><text id="ProcessOnText1014" fill="#000000" font-size="20" x="71.0" y="20.5" font-family="Times New Roman" font-weight="bold" font-style="normal" text-decoration="none" family="Times New Roman" text-anchor="middle" size="20">SRE Hub</text><text id="ProcessOnText1015" fill="#000000" font-size="20" x="71.0" y="45.5" font-family="Times New Roman" font-weight="bold" font-style="normal" text-decoration="none" family="Times New Roman" text-anchor="middle" size="20">(Maintainer)</text></g></g><g id="ProcessOnG1016" transform="matrix(1.0,0.0,0.0,1.0,131.5,625.5)" opacity="1.0"><g id="ProcessOnG1018" transform="matrix(1.0,0.0,0.0,1.0,0.0,0.0)">
<path fill="#00BCF2" d="M1.398,73.64c0.322-6.125,1.769-11.747,4.324-16.809c2.85-5.641,6.373-9.628,10.458-11.83
	c2.615-1.41,5.66-1.558,9.035-0.437c1.532,0.509,2.477,1.013,5.224,2.783c7.403,4.774,12.203,6.578,16.071,6.04
	c1.464-0.203,2.597-0.601,4.677-1.639c1.855-0.925,2.43-1.342,4.628-3.351c0.808-0.738,1.793-1.519,2.189-1.733
	c0.644-0.351,0.822-0.382,1.686-0.303c2.462,0.23,4.68,2.079,7.391,6.158c2.396,3.608,3.638,6.454,4.692,10.762
	c0.604,2.47,1.107,5.306,1.468,8.261c0.167,1.376,0.333,2.716,0.368,2.979L73.674,75H37.501H1.326L1.398,73.64L1.398,73.64z
	 M40.054,43.59c-6.679-1.046-12.624-5.691-15.813-12.358c-1.648-3.444-2.334-6.552-2.353-10.668
	c-0.038-8.003,4.14-15.267,10.704-18.617c2.81-1.434,5.637-2.059,8.732-1.931c3.017,0.125,4.764,0.573,7.576,1.941
	c2.041,0.993,3.119,1.707,4.743,3.141C59.062,9.88,62.13,17.534,61.507,24.7c-0.372,4.262-1.501,7.592-3.684,10.866
	C53.886,41.472,46.844,44.651,40.054,43.59L40.054,43.59z"/>

</g></g><g id="ProcessOnG1019" transform="matrix(1.0,0.0,0.0,1.0,198.5,625.5)" opacity="1.0"><g id="ProcessOnG1021" transform="matrix(1.0,0.0,0.0,1.0,0.0,0.0)">
<path fill="#00BCF2" d="M1.398,73.64c0.322-6.125,1.769-11.747,4.324-16.809c2.85-5.641,6.373-9.628,10.458-11.83
	c2.615-1.41,5.66-1.558,9.035-0.437c1.532,0.509,2.477,1.013,5.224,2.783c7.403,4.774,12.203,6.578,16.071,6.04
	c1.464-0.203,2.597-0.601,4.677-1.639c1.855-0.925,2.43-1.342,4.628-3.351c0.808-0.738,1.793-1.519,2.189-1.733
	c0.644-0.351,0.822-0.382,1.686-0.303c2.462,0.23,4.68,2.079,7.391,6.158c2.396,3.608,3.638,6.454,4.692,10.762
	c0.604,2.47,1.107,5.306,1.468,8.261c0.167,1.376,0.333,2.716,0.368,2.979L73.674,75H37.501H1.326L1.398,73.64L1.398,73.64z
	 M40.054,43.59c-6.679-1.046-12.624-5.691-15.813-12.358c-1.648-3.444-2.334-6.552-2.353-10.668
	c-0.038-8.003,4.14-15.267,10.704-18.617c2.81-1.434,5.637-2.059,8.732-1.931c3.017,0.125,4.764,0.573,7.576,1.941
	c2.041,0.993,3.119,1.707,4.743,3.141C59.062,9.88,62.13,17.534,61.507,24.7c-0.372,4.262-1.501,7.592-3.684,10.866
	C53.886,41.472,46.844,44.651,40.054,43.59L40.054,43.59z"/>

</g></g><g id="ProcessOnG1022" transform="matrix(1.0,0.0,0.0,1.0,266.5,625.5)" opacity="1.0"><g id="ProcessOnG1024" transform="matrix(1.0,0.0,0.0,1.0,0.0,0.0)">
<path fill="#00BCF2" d="M1.398,73.64c0.322-6.125,1.769-11.747,4.324-16.809c2.85-5.641,6.373-9.628,10.458-11.83
	c2.615-1.41,5.66-1.558,9.035-0.437c1.532,0.509,2.477,1.013,5.224,2.783c7.403,4.774,12.203,6.578,16.071,6.04
	c1.464-0.203,2.597-0.601,4.677-1.639c1.855-0.925,2.43-1.342,4.628-3.351c0.808-0.738,1.793-1.519,2.189-1.733
	c0.644-0.351,0.822-0.382,1.686-0.303c2.462,0.23,4.68,2.079,7.391,6.158c2.396,3.608,3.638,6.454,4.692,10.762
	c0.604,2.47,1.107,5.306,1.468,8.261c0.167,1.376,0.333,2.716,0.368,2.979L73.674,75H37.501H1.326L1.398,73.64L1.398,73.64z
	 M40.054,43.59c-6.679-1.046-12.624-5.691-15.813-12.358c-1.648-3.444-2.334-6.552-2.353-10.668
	c-0.038-8.003,4.14-15.267,10.704-18.617c2.81-1.434,5.637-2.059,8.732-1.931c3.017,0.125,4.764,0.573,7.576,1.941
	c2.041,0.993,3.119,1.707,4.743,3.141C59.062,9.88,62.13,17.534,61.507,24.7c-0.372,4.262-1.501,7.592-3.684,10.866
	C53.886,41.472,46.844,44.651,40.054,43.59L40.054,43.59z"/>

</g></g><g id="ProcessOnG1025" transform="matrix(1.0,0.0,0.0,1.0,458.5,447.0)" opacity="1.0"><g id="ProcessOnG1027" transform="matrix(1.0,0.0,0.0,1.0,0.0,0.0)">
<path fill="#00BCF2" d="M32.86,74.796c-11.713-1.531-21.824-8.252-27.875-18.529c-2.014-3.421-3.625-7.824-4.393-12.001
	c-1.044-5.692-0.7-11.977,0.957-17.466c1.365-4.521,3.532-8.7,6.51-12.552c1.243-1.608,4.589-4.956,6.197-6.2
	c5.91-4.575,12.648-7.26,19.917-7.938c2.301-0.214,6.567-0.101,8.761,0.234c11.62,1.771,21.608,8.692,27.395,18.981
	c5.479,9.745,6.188,22.124,1.861,32.524c-5.241,12.602-16.673,21.269-30.28,22.964C39.831,75.07,34.894,75.062,32.86,74.796
	L32.86,74.796z M27.902,61.579c0.437-1.201,1.087-2.16,2.102-3.1l0.868-0.805l-0.697-0.098c-3.829-0.534-7.973-1.895-10.588-3.475
	c-4.418-2.67-6.654-7.646-6.653-14.807c0-3.118,0.343-4.858,1.354-6.876c0.693-1.382,0.952-1.777,1.9-2.889l0.707-0.83l-0.379-1.451
	c-0.653-2.501-0.545-4.862,0.348-7.595l0.373-1.141h0.973c2.146,0,4.832,1.009,7.994,2.995l1.559,0.979l1.74-0.426
	c2.822-0.689,4.193-0.828,8.137-0.819c3.863,0.011,5.297,0.162,8.119,0.876l1.468,0.371l1.42-0.896
	c3.19-2.013,6.001-3.078,8.131-3.081h0.974l0.307,0.846c1.069,2.951,1.166,6.061,0.268,8.658l-0.196,0.564l0.942,1.183
	c1.071,1.345,2.257,3.665,2.599,5.084c1.013,4.2,0.36,10.343-1.491,14.052c-1.354,2.716-3.251,4.543-6.298,6.076
	c-1.855,0.934-5.842,2.107-8.627,2.542l-1.135,0.177l0.603,0.477c0.75,0.595,1.513,1.547,1.988,2.482
	c0.632,1.241,0.778,2.368,0.78,6.03c0.002,3.143,0.02,3.356,0.26,3.265c0.142-0.054,0.854-0.308,1.582-0.563
	c1.756-0.613,5.086-2.313,6.912-3.524c6.728-4.466,11.681-11.192,13.884-18.853c0.944-3.278,1.336-6.051,1.336-9.439
	c0-9.483-3.638-18.006-10.511-24.625c-5.079-4.891-11.49-8.01-18.681-9.087c-2.396-0.358-7.132-0.365-9.485-0.011
	c-7.554,1.132-13.95,4.339-19.268,9.661C8.24,18.791,5.028,25.16,3.867,32.646c-0.363,2.344-0.363,7.358,0,9.702
	c0.668,4.308,2.216,8.77,4.232,12.196c4.084,6.943,10.52,12.342,17.747,14.888l1.572,0.554l0.085-3.773
	C27.58,62.86,27.624,62.344,27.902,61.579L27.902,61.579z"/>

</g><g id="ProcessOnG1028" transform="matrix(1.0,0.0,0.0,1.0,-20.0,81.875)"><text id="ProcessOnText1029" fill="#000000" font-size="13" x="56.5" y="13.325" font-family="微软雅黑" font-weight="normal" font-style="normal" text-decoration="none" family="微软雅黑" text-anchor="middle" size="13">Github.com</text></g></g><g id="ProcessOnG1030"><path id="ProcessOnPath1031" d="M613.0 488.0L578.0 488.0L578.0 488.0L558.2360679774998 488.0" stroke="#323232" stroke-width="2.0" stroke-dasharray="none" fill="none" marker-end="url(#ProcessOnMarker1032)"/></g><g id="ProcessOnG1034"><path id="ProcessOnPath1035" d="M444.5 489.0L384.25 489.0L384.25 489.0L339.2360679774998 489.0" stroke="#323232" stroke-width="2.0" stroke-dasharray="none" fill="none" marker-end="url(#ProcessOnMarker1036)"/></g><g id="ProcessOnG1038" transform="matrix(1.0,0.0,0.0,1.0,437.5,625.5)" opacity="1.0"><g id="ProcessOnG1040" transform="matrix(1.0,0.0,0.0,1.0,0.0,0.0)">
<path fill="#00BCF2" d="M1.398,73.64c0.322-6.125,1.769-11.747,4.324-16.809c2.85-5.641,6.373-9.628,10.458-11.83
	c2.615-1.41,5.66-1.558,9.035-0.437c1.532,0.509,2.477,1.013,5.224,2.783c7.403,4.774,12.203,6.578,16.071,6.04
	c1.464-0.203,2.597-0.601,4.677-1.639c1.855-0.925,2.43-1.342,4.628-3.351c0.808-0.738,1.793-1.519,2.189-1.733
	c0.644-0.351,0.822-0.382,1.686-0.303c2.462,0.23,4.68,2.079,7.391,6.158c2.396,3.608,3.638,6.454,4.692,10.762
	c0.604,2.47,1.107,5.306,1.468,8.261c0.167,1.376,0.333,2.716,0.368,2.979L73.674,75H37.501H1.326L1.398,73.64L1.398,73.64z
	 M40.054,43.59c-6.679-1.046-12.624-5.691-15.813-12.358c-1.648-3.444-2.334-6.552-2.353-10.668
	c-0.038-8.003,4.14-15.267,10.704-18.617c2.81-1.434,5.637-2.059,8.732-1.931c3.017,0.125,4.764,0.573,7.576,1.941
	c2.041,0.993,3.119,1.707,4.743,3.141C59.062,9.88,62.13,17.534,61.507,24.7c-0.372,4.262-1.501,7.592-3.684,10.866
	C53.886,41.472,46.844,44.651,40.054,43.59L40.054,43.59z"/>

</g></g><g id="ProcessOnG1041" transform="matrix(1.0,0.0,0.0,1.0,480.5,625.5)" opacity="1.0"><g id="ProcessOnG1043" transform="matrix(1.0,0.0,0.0,1.0,0.0,0.0)">
<path fill="#00BCF2" d="M1.398,73.64c0.322-6.125,1.769-11.747,4.324-16.809c2.85-5.641,6.373-9.628,10.458-11.83
	c2.615-1.41,5.66-1.558,9.035-0.437c1.532,0.509,2.477,1.013,5.224,2.783c7.403,4.774,12.203,6.578,16.071,6.04
	c1.464-0.203,2.597-0.601,4.677-1.639c1.855-0.925,2.43-1.342,4.628-3.351c0.808-0.738,1.793-1.519,2.189-1.733
	c0.644-0.351,0.822-0.382,1.686-0.303c2.462,0.23,4.68,2.079,7.391,6.158c2.396,3.608,3.638,6.454,4.692,10.762
	c0.604,2.47,1.107,5.306,1.468,8.261c0.167,1.376,0.333,2.716,0.368,2.979L73.674,75H37.501H1.326L1.398,73.64L1.398,73.64z
	 M40.054,43.59c-6.679-1.046-12.624-5.691-15.813-12.358c-1.648-3.444-2.334-6.552-2.353-10.668
	c-0.038-8.003,4.14-15.267,10.704-18.617c2.81-1.434,5.637-2.059,8.732-1.931c3.017,0.125,4.764,0.573,7.576,1.941
	c2.041,0.993,3.119,1.707,4.743,3.141C59.062,9.88,62.13,17.534,61.507,24.7c-0.372,4.262-1.501,7.592-3.684,10.866
	C53.886,41.472,46.844,44.651,40.054,43.59L40.054,43.59z"/>

</g></g><g id="ProcessOnG1044" transform="matrix(1.0,0.0,0.0,1.0,639.0,625.5)" opacity="1.0"><g id="ProcessOnG1046" transform="matrix(1.0,0.0,0.0,1.0,0.0,0.0)">
<path fill="#00BCF2" d="M1.398,73.64c0.322-6.125,1.769-11.747,4.324-16.809c2.85-5.641,6.373-9.628,10.458-11.83
	c2.615-1.41,5.66-1.558,9.035-0.437c1.532,0.509,2.477,1.013,5.224,2.783c7.403,4.774,12.203,6.578,16.071,6.04
	c1.464-0.203,2.597-0.601,4.677-1.639c1.855-0.925,2.43-1.342,4.628-3.351c0.808-0.738,1.793-1.519,2.189-1.733
	c0.644-0.351,0.822-0.382,1.686-0.303c2.462,0.23,4.68,2.079,7.391,6.158c2.396,3.608,3.638,6.454,4.692,10.762
	c0.604,2.47,1.107,5.306,1.468,8.261c0.167,1.376,0.333,2.716,0.368,2.979L73.674,75H37.501H1.326L1.398,73.64L1.398,73.64z
	 M40.054,43.59c-6.679-1.046-12.624-5.691-15.813-12.358c-1.648-3.444-2.334-6.552-2.353-10.668
	c-0.038-8.003,4.14-15.267,10.704-18.617c2.81-1.434,5.637-2.059,8.732-1.931c3.017,0.125,4.764,0.573,7.576,1.941
	c2.041,0.993,3.119,1.707,4.743,3.141C59.062,9.88,62.13,17.534,61.507,24.7c-0.372,4.262-1.501,7.592-3.684,10.866
	C53.886,41.472,46.844,44.651,40.054,43.59L40.054,43.59z"/>

</g></g><g id="ProcessOnG1047"><path id="ProcessOnPath1048" d="M195.0 615.0L195.0 585.0L236.0 585.0L236.0 570.2360679774998" stroke="#323232" stroke-width="2.0" stroke-dasharray="none" fill="none" marker-end="url(#ProcessOnMarker1049)"/></g><g id="ProcessOnG1051"><path id="ProcessOnPath1052" d="M300.5 613.0L300.5 585.5L260.0 585.5L260.0 573.2360679774998" stroke="#323232" stroke-width="2.0" stroke-dasharray="none" fill="none" marker-end="url(#ProcessOnMarker1053)"/></g><g id="ProcessOnG1055"><path id="ProcessOnPath1056" d="M361.0 660.0L395.0 660.0L395.0 660.0L413.7639320225002 660.0" stroke="#323232" stroke-width="2.0" stroke-dasharray="none" fill="none" marker-end="url(#ProcessOnMarker1057)"/></g><g id="ProcessOnG1059"><path id="ProcessOnPath1060" d="M569.0 658.0L603.0 658.0L603.0 658.0L621.7639320225002 658.0" stroke="#323232" stroke-width="2.0" stroke-dasharray="none" fill="none" marker-end="url(#ProcessOnMarker1061)"/></g><g id="ProcessOnG1063"><path id="ProcessOnPath1064" d="M500.0 592.0L500.0 570.0L500.0 570.0L500.0 563.2360679774998" stroke="#323232" stroke-width="2.0" stroke-dasharray="none" fill="none" marker-end="url(#ProcessOnMarker1065)"/></g><g id="ProcessOnG1067"><path id="ProcessOnPath1068" d="M680.0 609.0L680.0 577.5L680.0 577.5L680.0 561.2360679774998" stroke="#323232" stroke-width="2.0" stroke-dasharray="none" fill="none" marker-end="url(#ProcessOnMarker1069)"/></g><g id="ProcessOnG1071"><path id="ProcessOnPath1072" d="M536.0 300.0L536.0 366.5L658.0 366.5L658.0 417.7639320225002" stroke="#323232" stroke-width="2.0" stroke-dasharray="none" fill="none" marker-end="url(#ProcessOnMarker1073)"/></g><g id="ProcessOnG1075"><path id="ProcessOnPath1076" d="M675.0 428.0L675.0 357.0L551.0 357.0L551.0 301.2360679774998" stroke="#323232" stroke-width="2.0" stroke-dasharray="none" fill="none" marker-end="url(#ProcessOnMarker1077)"/></g><g id="ProcessOnG1079" transform="matrix(1.0,0.0,0.0,1.0,220.5,452.5)" opacity="1.0"><g id="ProcessOnG1081" transform="matrix(1.0,0.0,0.0,1.0,0.0,0.0)">
<path fill="#00BCF2" d="M37.499,0C16.789,0,0,16.789,0,37.5C0,58.21,16.789,75,37.499,75C58.21,75,75,58.21,75,37.5
	C75,16.789,58.21,0,37.499,0z M37.499,4.412c9.067,0,17.254,3.675,23.23,9.581c-2.525-0.489-5.122-0.758-7.789-0.758
	c-0.724,0-1.422-0.037-2.137,0c-5.592,0.291-10.912,1.738-15.717,4.066c-3.312-3.334-6.561-6.88-9.788-10.546
	C29.071,5.259,33.193,4.412,37.499,4.412L37.499,4.412z M20.403,9.168c3.182,3.867,6.49,7.467,9.858,10.961
	c-3.554,2.362-6.738,5.225-9.444,8.548c-0.326-0.029-0.631,0-0.965,0c-0.915,0-1.77,0.134-2.619,0.344
	c-1.633-3.281-2.91-6.78-3.792-10.409c-0.268-1.099-0.382-2.192-0.413-3.309C15.182,12.928,17.646,10.836,20.403,9.168L20.403,9.168
	z M60.729,17.164c1.033,0.018,2.016,0.176,3.033,0.345c4.244,5.563,6.825,12.455,6.825,19.991c0,3.402-0.563,6.698-1.517,9.788
	c-2.031-1.658-4.04-3.357-6.067-5.031c0.604-1.102,0.966-2.311,0.966-3.653c0-4.265-3.456-7.721-7.72-7.721
	c-1.802,0-3.443,0.62-4.758,1.653c-3.402-2.967-6.78-6-10.132-9.167c5.405-3.013,11.303-5.146,17.439-6.067
	C59.439,17.206,60.092,17.154,60.729,17.164L60.729,17.164z M9.237,20.336c0.409,2.646,1.019,6.268,1.172,6.756
	c0.496,1.59,1.048,3.146,1.723,4.687c-2.036,2.001-3.31,4.847-3.31,7.928c0,2.992,1.236,5.664,3.172,7.651
	c-0.59,2.874-0.966,5.841-0.966,8.893c0,0.343-0.009,0.691,0,1.034C6.889,51.759,4.412,44.933,4.412,37.5
	C4.412,31.207,6.187,25.344,9.237,20.336L9.237,20.336z M36.534,26.401c3.962,3.791,8.029,7.383,12.133,10.893
	c-0.071,0.421-0.138,0.868-0.138,1.31c0,4.263,3.456,7.72,7.721,7.72c0.911,0,1.807-0.192,2.619-0.482
	c2.694,2.186,5.429,4.384,8.134,6.549c-0.593,1.173-1.207,2.29-1.931,3.378c-1.805,0.31-3.667,0.576-4.343,0.62
	c-3.795,0.249-7.606-0.17-11.305-1.034c-0.44-3.845-3.688-6.824-7.651-6.824c-1.857,0-3.563,0.63-4.895,1.724
	c-2.59-1.54-5.069-3.355-7.376-5.377c0.84-1.557,1.38-3.278,1.38-5.17c0-2.509-0.864-4.834-2.275-6.687
	C30.999,30.571,33.692,28.391,36.534,26.401z M25.022,49.356c2.775,2.455,5.854,4.559,9.099,6.341
	c-0.013,0.184-0.068,0.366-0.068,0.553c0,4.264,3.457,7.721,7.721,7.721c2.612,0,4.944-1.323,6.342-3.309
	c3.225,0.549,6.567,0.735,9.926,0.481c1.011-0.075,1.987-0.207,2.965-0.413c-5.998,6.069-14.299,9.857-23.507,9.857
	c-7.96,0-15.247-2.83-20.955-7.514c-0.585-1.427-1.167-2.886-1.104-3.516c0.314-3.082,1.083-6.146,2.137-9.1
	c0.738,0.156,1.491,0.275,2.275,0.275C21.739,50.734,23.469,50.191,25.022,49.356L25.022,49.356z"/>

</g><g id="ProcessOnG1082" transform="matrix(1.0,0.0,0.0,1.0,-20.0,81.875)"><text id="ProcessOnText1083" fill="#000000" font-size="13" x="56.5" y="13.325" font-family="微软雅黑" font-weight="normal" font-style="normal" text-decoration="none" family="微软雅黑" text-anchor="middle" size="13">SREHub.com</text></g></g><g id="ProcessOnG1084" transform="matrix(1.0,0.0,0.0,1.0,724.0,197.5)" opacity="1.0"><g id="ProcessOnG1086" transform="matrix(1.0,0.0,0.0,1.0,0.0,0.0)">
<path fill="#00BCF2" d="M33.486,36.466c-5.376,0-9.796,4.417-9.796,9.788c0,5.372,4.42,9.787,9.796,9.787s9.796-4.415,9.796-9.787
	C43.282,40.883,38.862,36.466,33.486,36.466z M42.963,0C28.664,0,21.894,11.084,20.296,14.075h-4.802h-0.128l-0.191,0.064
	c0,0-3.731,0.55-7.491,2.942C3.924,19.473,0,23.996,0,31.22c0,8.036,4.438,12.764,8.708,15.035c4.271,2.27,8.516,2.43,8.516,2.43
	l0.063,0.063h0.063l16.904-0.189v-4.096l-16.84,0.191c0,0-0.123,0-0.128,0c-0.192-0.012-3.391-0.311-6.659-2.047
	c-3.368-1.792-6.53-4.773-6.53-11.388c0-5.817,2.799-8.796,5.763-10.683c2.964-1.886,5.954-2.366,5.954-2.366h5.635h1.345
	l0.512-1.151c0,0,5.781-12.923,19.657-12.923c6.973,0,11.162,2.525,14.021,5.374c2.862,2.849,4.241,6.02,5.059,7.741
	c0.45,0.946,0.837,4.402,0.832,7.293c-0.004,2.892-0.19,5.375-0.19,5.375l-0.192,2.303l2.306-0.128c0,0,1.918-0.023,3.713,0.767
	c1.796,0.792,3.389,1.994,3.395,5.823c0.004,2.59-1.201,3.777-2.626,4.671c-1.424,0.892-2.882,1.151-2.882,1.151l-17.031-0.321
	l-0.063,4.095l17.416,0.321h0.191l0.129-0.065c0,0,2.227-0.355,4.417-1.726c2.191-1.372,4.552-4.055,4.545-8.126
	c-0.008-5.219-3.005-8.353-5.825-9.595c-1.224-0.54-2.358-0.695-3.33-0.833c0.066-1.018,0.127-1.701,0.129-3.71
	c0.003-3.083,0.005-6.448-1.217-9.021c-0.701-1.475-2.333-5.475-5.826-8.956C56.438,3.046,50.945,0,42.963,0L42.963,0z
	 M33.486,27.189c-2.587,0-5.052,0.592-7.3,1.536l1.985,4.352c1.642-0.662,3.425-1.088,5.314-1.088
	c7.848,0,14.086,6.298,14.086,14.137c0,7.842-6.239,14.074-14.086,14.074c-1.982,0-3.865-0.362-5.57-1.088l-1.985,4.351
	C28.243,64.472,30.807,65,33.486,65c10.433,0,18.89-8.45,18.89-18.874S43.92,27.189,33.486,27.189L33.486,27.189z"/>

</g><g id="ProcessOnG1087" transform="matrix(1.0,0.0,0.0,1.0,-20.0,71.875)"><text id="ProcessOnText1088" fill="#000000" font-size="13" x="57.0" y="13.325" font-family="微软雅黑" font-weight="normal" font-style="normal" text-decoration="none" family="微软雅黑" text-anchor="middle" size="13">团体/公司</text></g></g><g id="ProcessOnG1089"><path id="ProcessOnPath1090" d="M752.0 325.0L752.0 376.5L752.0 376.5L752.0 412.7639320225002" stroke="#323232" stroke-width="2.0" stroke-dasharray="none" fill="none" marker-end="url(#ProcessOnMarker1091)"/></g><g id="ProcessOnG1093"><path id="ProcessOnPath1094" d="M774.0 428.0L774.0 375.5L774.0 375.5L774.0 338.2360679774998" stroke="#323232" stroke-width="2.0" stroke-dasharray="none" fill="none" marker-end="url(#ProcessOnMarker1095)"/></g><g id="ProcessOnG1097" transform="matrix(1.0,0.0,0.0,1.0,569.0,319.0)" opacity="1.0"><path id="ProcessOnPath1098" d="M0.0 0.0L94.0 0.0L94.0 23.0L0.0 23.0Z" stroke="none" stroke-width="0.0" stroke-dasharray="none" opacity="1.0" fill="none"/><g id="ProcessOnG1099" transform="matrix(1.0,0.0,0.0,1.0,0.0,3.375)"><text id="ProcessOnText1100" fill="#000000" font-size="13" x="46.0" y="13.325" font-family="微软雅黑" font-weight="normal" font-style="normal" text-decoration="none" family="微软雅黑" text-anchor="middle" size="13">技术分享、答疑</text></g></g><g id="ProcessOnG1101" transform="matrix(1.0,0.0,0.0,1.0,506.5,371.0)" opacity="1.0"><path id="ProcessOnPath1102" d="M0.0 0.0L49.0 0.0L49.0 34.0L0.0 34.0Z" stroke="none" stroke-width="0.0" stroke-dasharray="none" opacity="1.0" fill="none"/><g id="ProcessOnG1103" transform="matrix(1.0,0.0,0.0,1.0,0.0,8.875)"><text id="ProcessOnText1104" fill="#000000" font-size="13" x="23.5" y="13.325" font-family="微软雅黑" font-weight="normal" font-style="normal" text-decoration="none" family="微软雅黑" text-anchor="middle" size="13">捐赠</text></g></g><g id="ProcessOnG1105" transform="matrix(1.0,0.0,0.0,1.0,707.5,350.0)" opacity="1.0"><path id="ProcessOnPath1106" d="M0.0 0.0L49.0 0.0L49.0 34.0L0.0 34.0Z" stroke="none" stroke-width="0.0" stroke-dasharray="none" opacity="1.0" fill="none"/><g id="ProcessOnG1107" transform="matrix(1.0,0.0,0.0,1.0,0.0,8.875)"><text id="ProcessOnText1108" fill="#000000" font-size="13" x="23.5" y="13.325" font-family="微软雅黑" font-weight="normal" font-style="normal" text-decoration="none" family="微软雅黑" text-anchor="middle" size="13">捐赠</text></g></g><g id="ProcessOnG1109" transform="matrix(1.0,0.0,0.0,1.0,786.0,355.5)" opacity="1.0"><path id="ProcessOnPath1110" d="M0.0 0.0L94.0 0.0L94.0 23.0L0.0 23.0Z" stroke="none" stroke-width="0.0" stroke-dasharray="none" opacity="1.0" fill="none"/><g id="ProcessOnG1111" transform="matrix(1.0,0.0,0.0,1.0,0.0,-12.875)"><text id="ProcessOnText1112" fill="#000000" font-size="13" x="46.0" y="13.325" font-family="微软雅黑" font-weight="normal" font-style="normal" text-decoration="none" family="微软雅黑" text-anchor="middle" size="13">技术交流</text><text id="ProcessOnText1113" fill="#000000" font-size="13" x="46.0" y="29.575" font-family="微软雅黑" font-weight="normal" font-style="normal" text-decoration="none" family="微软雅黑" text-anchor="middle" size="13">架构优化</text><text id="ProcessOnText1114" fill="#000000" font-size="13" x="46.0" y="45.825" font-family="微软雅黑" font-weight="normal" font-style="normal" text-decoration="none" family="微软雅黑" text-anchor="middle" size="13">解决方案</text></g></g><g id="ProcessOnG1115" transform="matrix(1.0,0.0,0.0,1.0,498.0,278.0)" opacity="1.0"><path id="ProcessOnPath1116" d="M0.0 0.0L55.0 0.0L55.0 24.0L0.0 24.0Z" stroke="none" stroke-width="0.0" stroke-dasharray="none" opacity="1.0" fill="none"/><g id="ProcessOnG1117" transform="matrix(1.0,0.0,0.0,1.0,0.0,3.875)"><text id="ProcessOnText1118" fill="#000000" font-size="13" x="26.5" y="13.325" font-family="微软雅黑" font-weight="normal" font-style="normal" text-decoration="none" family="微软雅黑" text-anchor="middle" size="13">个人</text></g></g><g id="ProcessOnG1119" transform="matrix(1.0,0.0,0.0,1.0,552.0,434.0)" opacity="1.0"><path id="ProcessOnPath1120" d="M0.0 0.0L70.0 0.0L70.0 37.0L0.0 37.0Z" stroke="none" stroke-width="0.0" stroke-dasharray="none" opacity="1.0" fill="none"/><g id="ProcessOnG1121" transform="matrix(1.0,0.0,0.0,1.0,0.0,-5.875)"><text id="ProcessOnText1122" fill="#000000" font-size="13" x="34.0" y="13.325" font-family="微软雅黑" font-weight="normal" font-style="normal" text-decoration="none" family="微软雅黑" text-anchor="middle" size="13">代码提交</text><text id="ProcessOnText1123" fill="#000000" font-size="13" x="34.0" y="29.575" font-family="微软雅黑" font-weight="normal" font-style="normal" text-decoration="none" family="微软雅黑" text-anchor="middle" size="13">问题答疑</text><text id="ProcessOnText1124" fill="#000000" font-size="13" x="34.0" y="45.825" font-family="微软雅黑" font-weight="normal" font-style="normal" text-decoration="none" family="微软雅黑" text-anchor="middle" size="13">技术沉淀</text></g></g><g id="ProcessOnG1125" transform="matrix(1.0,0.0,0.0,1.0,444.5,585.0)" opacity="1.0"><path id="ProcessOnPath1126" d="M0.0 0.0L124.5 0.0L124.5 44.0L0.0 44.0Z" stroke="none" stroke-width="0.0" stroke-dasharray="none" opacity="1.0" fill="none"/><g id="ProcessOnG1127" transform="matrix(1.0,0.0,0.0,1.0,0.0,5.75)"><text id="ProcessOnText1128" fill="#000000" font-size="13" x="61.25" y="13.325" font-family="微软雅黑" font-weight="normal" font-style="normal" text-decoration="none" family="微软雅黑" text-anchor="middle" size="13">PR</text><text id="ProcessOnText1129" fill="#000000" font-size="13" x="61.25" y="29.575" font-family="微软雅黑" font-weight="normal" font-style="normal" text-decoration="none" family="微软雅黑" text-anchor="middle" size="13">(代码、需求、创意)</text></g></g><g id="ProcessOnG1130" transform="matrix(1.0,0.0,0.0,1.0,622.0,570.0)" opacity="1.0"><path id="ProcessOnPath1131" d="M0.0 0.0L56.0 0.0L56.0 26.0L0.0 26.0Z" stroke="none" stroke-width="0.0" stroke-dasharray="none" opacity="1.0" fill="none"/><g id="ProcessOnG1132" transform="matrix(1.0,0.0,0.0,1.0,0.0,4.875)"><text id="ProcessOnText1133" fill="#000000" font-size="13" x="27.0" y="13.325" font-family="微软雅黑" font-weight="normal" font-style="normal" text-decoration="none" family="微软雅黑" text-anchor="middle" size="13">申请</text></g></g><g id="ProcessOnG1134"><path id="ProcessOnPath1135" d="M705.0 544.0L705.0 578.0L705.0 578.0L705.0 596.7639320225002" stroke="#323232" stroke-width="2.0" stroke-dasharray="none" fill="none" marker-end="url(#ProcessOnMarker1136)"/></g><g id="ProcessOnG1138" transform="matrix(1.0,0.0,0.0,1.0,728.0,564.5)" opacity="1.0"><path id="ProcessOnPath1139" d="M0.0 0.0L84.0 0.0L84.0 37.0L0.0 37.0Z" stroke="none" stroke-width="0.0" stroke-dasharray="none" opacity="1.0" fill="none"/><g id="ProcessOnG1140" transform="matrix(1.0,0.0,0.0,1.0,0.0,-14.0)"><text id="ProcessOnText1141" fill="#000000" font-size="13" x="0.0" y="13.325" font-family="微软雅黑" font-weight="normal" font-style="normal" text-decoration="none" family="微软雅黑" text-anchor="start" size="13">实验资源</text><text id="ProcessOnText1142" fill="#000000" font-size="13" x="0.0" y="29.575" font-family="微软雅黑" font-weight="normal" font-style="normal" text-decoration="none" family="微软雅黑" text-anchor="start" size="13">技术支持</text><text id="ProcessOnText1143" fill="#000000" font-size="13" x="0.0" y="45.825" font-family="微软雅黑" font-weight="normal" font-style="normal" text-decoration="none" family="微软雅黑" text-anchor="start" size="13">综合能力拓展</text><text id="ProcessOnText1144" fill="#000000" font-size="13" x="0.0" y="62.075" font-family="微软雅黑" font-weight="normal" font-style="normal" text-decoration="none" family="微软雅黑" text-anchor="start" size="13"></text></g></g><g id="ProcessOnG1145" transform="matrix(1.0,0.0,0.0,1.0,316.0,562.5)" opacity="1.0"><path id="ProcessOnPath1146" d="M0.0 0.0L57.0 0.0L57.0 41.0L0.0 41.0Z" stroke="none" stroke-width="0.0" stroke-dasharray="none" opacity="1.0" fill="none"/><g id="ProcessOnG1147" transform="matrix(1.0,0.0,0.0,1.0,0.0,-3.875)"><text id="ProcessOnText1148" fill="#000000" font-size="13" x="27.5" y="13.325" font-family="微软雅黑" font-weight="normal" font-style="normal" text-decoration="none" family="微软雅黑" text-anchor="middle" size="13">加入社区</text><text id="ProcessOnText1149" fill="#000000" font-size="13" x="27.5" y="29.575" font-family="微软雅黑" font-weight="normal" font-style="normal" text-decoration="none" family="微软雅黑" text-anchor="middle" size="13">获取信息</text><text id="ProcessOnText1150" fill="#000000" font-size="13" x="27.5" y="45.825" font-family="微软雅黑" font-weight="normal" font-style="normal" text-decoration="none" family="微软雅黑" text-anchor="middle" size="13">积累沉淀</text></g></g><g id="ProcessOnG1151" transform="matrix(1.0,0.0,0.0,1.0,368.0,626.0)" opacity="1.0"><path id="ProcessOnPath1152" d="M0.0 0.0L45.0 0.0L45.0 24.0L0.0 24.0Z" stroke="none" stroke-width="0.0" stroke-dasharray="none" opacity="1.0" fill="none"/><g id="ProcessOnG1153" transform="matrix(1.0,0.0,0.0,1.0,0.0,3.875)"><text id="ProcessOnText1154" fill="#000000" font-size="13" x="21.5" y="13.325" font-family="微软雅黑" font-weight="normal" font-style="normal" text-decoration="none" family="微软雅黑" text-anchor="middle" size="13">提升</text></g></g><g id="ProcessOnG1155" transform="matrix(1.0,0.0,0.0,1.0,590.0,626.0)" opacity="1.0"><path id="ProcessOnPath1156" d="M0.0 0.0L45.0 0.0L45.0 24.0L0.0 24.0Z" stroke="none" stroke-width="0.0" stroke-dasharray="none" opacity="1.0" fill="none"/><g id="ProcessOnG1157" transform="matrix(1.0,0.0,0.0,1.0,0.0,3.875)"><text id="ProcessOnText1158" fill="#000000" font-size="13" x="21.5" y="13.325" font-family="微软雅黑" font-weight="normal" font-style="normal" text-decoration="none" family="微软雅黑" text-anchor="middle" size="13">提升</text></g></g><g id="ProcessOnG1159"><path id="ProcessOnPath1160" d="M721.0 662.0L721.0 661.0L919.0 661.0L919.0 230.0L815.2360679774998 230.0" stroke="#323232" stroke-width="2.0" stroke-dasharray="none" fill="none" marker-end="url(#ProcessOnMarker1161)"/></g><g id="ProcessOnG1163" transform="matrix(1.0,0.0,0.0,1.0,790.0,626.0)" opacity="1.0"><path id="ProcessOnPath1164" d="M0.0 0.0L61.0 0.0L61.0 24.0L0.0 24.0Z" stroke="none" stroke-width="0.0" stroke-dasharray="none" opacity="1.0" fill="none"/><g id="ProcessOnG1165" transform="matrix(1.0,0.0,0.0,1.0,0.0,3.875)"><text id="ProcessOnText1166" fill="#000000" font-size="13" x="29.5" y="13.325" font-family="微软雅黑" font-weight="normal" font-style="normal" text-decoration="none" family="微软雅黑" text-anchor="middle" size="13">加入/创建</text></g></g><g id="ProcessOnG1167"><path id="ProcessOnPath1168" d="M626.0 232.0L669.75 232.0L669.75 232.0L698.2639320225002 232.0" stroke="#323232" stroke-width="2.0" stroke-dasharray="none" fill="none" marker-end="url(#ProcessOnMarker1169)"/></g><g id="ProcessOnG1171" transform="matrix(1.0,0.0,0.0,1.0,626.0,246.0)" opacity="1.0"><path id="ProcessOnPath1172" d="M0.0 0.0L65.0 0.0L65.0 23.0L0.0 23.0Z" stroke="none" stroke-width="0.0" stroke-dasharray="none" opacity="1.0" fill="none"/><g id="ProcessOnG1173" transform="matrix(1.0,0.0,0.0,1.0,0.0,3.375)"><text id="ProcessOnText1174" fill="#000000" font-size="13" x="31.5" y="13.325" font-family="微软雅黑" font-weight="normal" font-style="normal" text-decoration="none" family="微软雅黑" text-anchor="middle" size="13">加入/创建</text></g></g></g></g></svg>